<?xml version="1.0" encoding="utf-8"?>
<!-- Generator: Adobe Illustrator 15.1.0, SVG Export Plug-In  -->
<!DOCTYPE svg PUBLIC "-//W3C//DTD SVG 1.1//EN" "http://www.w3.org/Graphics/SVG/1.1/DTD/svg11.dtd" [
	<!ENTITY ns_flows "http://ns.adobe.com/Flows/1.0/">
]>
<svg version="1.1"
	 xmlns="http://www.w3.org/2000/svg" xmlns:xlink="http://www.w3.org/1999/xlink" xmlns:a="http://ns.adobe.com/AdobeSVGViewerExtensions/3.0/"
	 x="0px" y="0px" width="182px" height="82px" viewBox="-5.3 -2.9 182 82" enable-background="new -5.3 -2.9 182 82"
	 xml:space="preserve">
<defs>
</defs>
<path d="M133.5,24c0-1.1-0.6-1.5-1.5-1.5h-2.8v-7.6h8.5c3.3,0,4.8,1.5,4.8,4.8v36c0,1,0.6,1.5,1.5,1.5h2.7v7.5h-8.4
	c-3.4,0-4.8-1.4-4.8-4.8V24z"/>
<path d="M24.5,22c1.1,0,1.8,0.1,1.8,0.1v-7.6c0,0-1.2-0.2-3-0.2c-5,0-14.6,1.5-14.6,13.3v1.1H4.3v7.1h4.4v25.4h0v0.6
	c0,5.2-4.4,5.8-6.9,5.8c-1.1,0-1.8-0.1-1.8-0.1v7.6c0,0,1.2,0.2,3,0.2c5,0,14.6-1.5,14.6-13.3V61h0V35.8h7.7v-7.1h-7.7v-0.8
	C17.6,22.7,22,22,24.5,22z"/>
<path d="M68.6,37.8c0-1.1-0.6-1.5-1.5-1.5h-2.8v-7.6h8.2c3.2,0,4.7,1.5,4.7,4v1.1c0,0.8-0.1,1.5-0.1,1.5h0.1c1.5-3,5.4-7.4,12.6-7.4
	c7.9,0,12.5,4.1,12.5,13.6v14c0,1,0.6,1.5,1.5,1.5h2.8v7.5h-8.5c-3.4,0-4.8-1.4-4.8-4.8V43.3c0-4.4-1.1-7.3-5.6-7.3
	c-4.8,0-8.4,3-9.6,7.3c-0.5,1.5-0.7,3.1-0.7,4.8v16.4h-8.8V37.8z"/>
<path d="M110.1,35.8h-4.6v-7.1h4.8v-9.8h8.7v9.8h8.1v7.1H119v14.5c0,5.9,4.6,6.7,7.1,6.7c1,0,1.6-0.1,1.6-0.1v7.8
	c0,0-1.1,0.2-2.7,0.2c-5,0-14.9-1.5-14.9-13.5V35.8z"/>
<path d="M53.8,29.8c-0.1,0.4-0.2,0.8-0.4,1.2c-1,2.9-3.1,4.2-5.2,5c4.1,1.5,7,5.4,7,10.6c0,6.7-4.9,11.2-10.7,11.2
	c-5.8,0-10.7-4.5-10.7-11.2c0-2.1,0.5-3.9,1.3-5.5c-0.2-1.4-1-4.7-3-7.5c-0.3-0.4-0.6-0.7-0.9-1.1c-3.9,3.4-6.4,8.3-6.4,14.1
	c0,11.1,8.7,18.8,19.7,18.8c11,0,19.8-7.8,19.8-18.8C64.3,38.9,60.1,32.8,53.8,29.8z"/>
<rect x="153.1" y="14.7" width="7.7" height="8.2"/>
<path d="M168.5,56.9c-2.3,0-6.5-0.8-6.9-6l0,0V33.5c0-3.3-1.4-4.8-4.7-4.8h-8.5v7.6h2.8c1,0,1.5,0.5,1.5,1.5v3.9v9.2v0.3
	c0,12.1,9.8,13.6,14.7,13.6c0.7,0,1.3,0,1.7-0.1v-7.9C168.9,56.9,168.7,56.9,168.5,56.9z"/>
<path fill-rule="evenodd" clip-rule="evenodd" fill="#42B5E8" d="M42.5,21.8c-0.5-7.9-9.5-9.3-12.3-1.3c-1.6,4.4,1.9,7.4,3.9,10.1
	c2,2.6,3,5.6,3,6.7c0.6-0.9,3.5-2.5,6.5-3.4c3.3-0.9,7.9-1,9.4-5.4C55.7,20.5,47.7,16.2,42.5,21.8z"/>
<path fill-rule="evenodd" clip-rule="evenodd" fill="#42B5E8" d="M42.3,5c-4.1-2.8-8.3,1.1-5.4,5.6c1.6,2.5,4.4,2,6.6,2
	c2.1,0,4,0.7,4.5,1.1c-0.2-0.6,0.1-2.7,0.8-4.6c0.8-2,2.6-4.3,1-6.8C46.8-2.1,41.5,0.3,42.3,5z"/>
<path fill="#FFFFFF" d="M134.3,22c0-1.1-0.6-1.5-1.5-1.5H130v-7.6h8.5c3.3,0,4.8,1.5,4.8,4.8v36c0,1,0.6,1.5,1.5,1.5h2.7v7.5h-8.4
	c-3.4,0-4.8-1.4-4.8-4.8V22z"/>
<path fill="#FFFFFF" d="M25.3,20c1.1,0,1.8,0.1,1.8,0.1v-7.6c0,0-1.2-0.2-3-0.2c-5,0-14.6,1.5-14.6,13.3v1.1H5.1v7.1h4.4v25.4h0v0.6
	c0,5.2-4.4,5.8-6.9,5.8c-1.1,0-1.8-0.1-1.8-0.1v7.6c0,0,1.2,0.2,3,0.2c5,0,14.6-1.5,14.6-13.3V59h0V33.8h7.7v-7.1h-7.7v-0.8
	C18.4,20.7,22.8,20,25.3,20z"/>
<path fill="#FFFFFF" d="M69.4,35.8c0-1.1-0.6-1.5-1.5-1.5H65v-7.6h8.2c3.2,0,4.7,1.5,4.7,4v1.1c0,0.8-0.1,1.5-0.1,1.5H78
	c1.5-3,5.4-7.4,12.6-7.4c7.9,0,12.5,4.1,12.5,13.6v14c0,1,0.6,1.5,1.5,1.5h2.8v7.5h-8.5c-3.4,0-4.8-1.4-4.8-4.8V41.3
	c0-4.4-1.1-7.3-5.6-7.3c-4.8,0-8.4,3-9.6,7.3c-0.5,1.5-0.7,3.1-0.7,4.8v16.4h-8.8V35.8z"/>
<path fill="#FFFFFF" d="M110.9,33.8h-4.6v-7.1h4.8v-9.8h8.7v9.8h8.1v7.1h-8.1v14.5c0,5.9,4.6,6.7,7.1,6.7c1,0,1.6-0.1,1.6-0.1v7.8
	c0,0-1.1,0.2-2.7,0.2c-5,0-14.9-1.5-14.9-13.5V33.8z"/>
<path fill="#FFFFFF" d="M54.6,27.8c-0.1,0.4-0.2,0.8-0.4,1.2c-1,2.9-3.1,4.2-5.2,5c4.1,1.5,7,5.4,7,10.6c0,6.7-4.9,11.2-10.7,11.2
	c-5.8,0-10.7-4.5-10.7-11.2c0-2.1,0.5-3.9,1.3-5.5c-0.2-1.4-1-4.7-3-7.5c-0.3-0.4-0.6-0.7-0.9-1.1c-3.9,3.4-6.4,8.3-6.4,14.1
	c0,11.1,8.7,18.8,19.7,18.8c11,0,19.8-7.8,19.8-18.8C65.1,36.9,60.9,30.8,54.6,27.8z"/>
<rect x="153.9" y="12.7" fill="#FFFFFF" width="7.7" height="8.2"/>
<path fill="#FFFFFF" d="M169.3,54.9c-2.3,0-6.5-0.8-6.9-6l0,0V31.5c0-3.3-1.4-4.8-4.7-4.8h-8.5v7.6h2.8c1,0,1.5,0.5,1.5,1.5v3.9v9.2
	v0.3c0,12.1,9.8,13.6,14.7,13.6c0.7,0,1.3,0,1.7-0.1v-7.9C169.7,54.9,169.5,54.9,169.3,54.9z"/>
</svg>
